<?xml version="1.0" encoding="UTF-8" standalone="no"?>
<svg
   xmlns:dc="http://purl.org/dc/elements/1.1/"
   xmlns:cc="http://creativecommons.org/ns#"
   xmlns:rdf="http://www.w3.org/1999/02/22-rdf-syntax-ns#"
   xmlns:svg="http://www.w3.org/2000/svg"
   xmlns="http://www.w3.org/2000/svg"
   xmlns:sodipodi="http://sodipodi.sourceforge.net/DTD/sodipodi-0.dtd"
   xmlns:inkscape="http://www.inkscape.org/namespaces/inkscape"
   inkscape:version="1.0 (4035a4fb49, 2020-05-01)"
   sodipodi:docname="facebook.svg"
   id="svg10"
   version="1.1"
   viewBox="0 0 19 19"
   height="19px"
   width="19px">
  <metadata
     id="metadata16">
    <rdf:RDF>
      <cc:Work
         rdf:about="">
        <dc:format>image/svg+xml</dc:format>
        <dc:type
           rdf:resource="http://purl.org/dc/dcmitype/StillImage" />
        <dc:title>Facebook</dc:title>
      </cc:Work>
    </rdf:RDF>
  </metadata>
  <defs
     id="defs14" />
  <sodipodi:namedview
     inkscape:current-layer="svg10"
     inkscape:window-maximized="1"
     inkscape:window-y="0"
     inkscape:window-x="0"
     inkscape:cy="14.63569"
     inkscape:cx="11.548275"
     inkscape:zoom="15.368421"
     inkscape:pagecheckerboard="true"
     showgrid="false"
     id="namedview12"
     inkscape:window-height="728"
     inkscape:window-width="1366"
     inkscape:pageshadow="2"
     inkscape:pageopacity="0"
     guidetolerance="10"
     gridtolerance="10"
     objecttolerance="10"
     borderopacity="1"
     bordercolor="#666666"
     pagecolor="#ffffff" />
  <!-- Generator: Sketch 58 (84663) - https://sketch.com -->
  <title
     id="title2">Facebook</title>
  <desc
     id="desc4">Created with Sketch.</desc>
  <g
     style="fill:#ffffff"
     fill-rule="evenodd"
     fill="none"
     stroke-width="1"
     stroke="none"
     id="Symbols">
    <g
       style="fill:#ffffff"
       fill="#3A3A3A"
       transform="translate(-64.000000, -131.000000)"
       id="D/Footer">
      <g
         style="fill:#ffffff"
         transform="translate(64.000000, 131.000000)"
         id="icons">
        <path
           style="fill:#ffffff"
           id="Facebook"
           d="M19,9.55805773 C19,4.27928432 14.746709,0 9.5,0 C4.25329102,0 0,4.27928432 0,9.55805773 C0,14.3287606 3.4740127,18.282959 8.015625,19 L8.015625,12.3209338 L5.60351562,12.3209338 L5.60351562,9.55805773 L8.015625,9.55805773 L8.015625,7.45229814 C8.015625,5.05680992 9.4339082,3.7336163 11.603916,3.7336163 C12.6432939,3.7336163 13.7304688,3.92029712 13.7304688,3.92029712 L13.7304688,6.27247539 L12.532541,6.27247539 C11.3524072,6.27247539 10.984375,7.00924856 10.984375,7.76511918 L10.984375,9.55805773 L13.6191406,9.55805773 L13.1979492,12.3209338 L10.984375,12.3209338 L10.984375,19 C15.5259873,18.282959 19,14.3287606 19,9.55805773" />
      </g>
    </g>
  </g>
</svg>
