<?xml version="1.0" encoding="UTF-8" standalone="no"?>
<svg
   xmlns:dc="http://purl.org/dc/elements/1.1/"
   xmlns:cc="http://creativecommons.org/ns#"
   xmlns:rdf="http://www.w3.org/1999/02/22-rdf-syntax-ns#"
   xmlns:svg="http://www.w3.org/2000/svg"
   xmlns="http://www.w3.org/2000/svg"
   xmlns:sodipodi="http://sodipodi.sourceforge.net/DTD/sodipodi-0.dtd"
   xmlns:inkscape="http://www.inkscape.org/namespaces/inkscape"
   sodipodi:docname="facebook-groups.svg"
   inkscape:version="1.0 (4035a4fb49, 2020-05-01)"
   id="svg8"
   version="1.1"
   viewBox="0 0 52.849129 52.702206"
   height="52.702206mm"
   width="52.849129mm">
  <defs
     id="defs2" />
  <sodipodi:namedview
     inkscape:window-maximized="1"
     inkscape:window-y="0"
     inkscape:window-x="0"
     inkscape:window-height="728"
     inkscape:window-width="1366"
     inkscape:pagecheckerboard="true"
     showgrid="false"
     inkscape:document-rotation="0"
     inkscape:current-layer="layer1"
     inkscape:document-units="mm"
     inkscape:cy="248.95688"
     inkscape:cx="298.54732"
     inkscape:zoom="0.98994949"
     inkscape:pageshadow="2"
     inkscape:pageopacity="0.0"
     borderopacity="1.0"
     bordercolor="#666666"
     pagecolor="#ffffff"
     id="base" />
  <metadata
     id="metadata5">
    <rdf:RDF>
      <cc:Work
         rdf:about="">
        <dc:format>image/svg+xml</dc:format>
        <dc:type
           rdf:resource="http://purl.org/dc/dcmitype/StillImage" />
        <dc:title></dc:title>
      </cc:Work>
    </rdf:RDF>
  </metadata>
  <g
     transform="translate(-9.0079483,-5.4098749)"
     id="layer1"
     inkscape:groupmode="layer"
     inkscape:label="Layer 1">
    <g
       style="fill:#ffffff"
       transform="translate(-26.876586,-86.650342)"
       id="g76">
      <path
         d="m 343.53125,278.43945 c -8.53918,0 -17.07788,0.79041 -23.43945,2.3711 -24.28444,6.03408 -46.58014,21.8557 -60.16407,42.69531 -38.88042,59.64779 -4.61551,139.68006 65.49805,152.98437 5.13687,0.97493 11.98754,1.31655 21.10547,1.05274 14.81404,-0.42841 23.57669,-2.24705 36.25586,-7.52539 22.24646,-9.26124 43.52002,-30.5348 52.78125,-52.78125 15.71933,-37.75952 7.30795,-81.01696 -21.31445,-109.62695 -12.69606,-12.69055 -30.01941,-22.5092 -47.28321,-26.79883 -6.36157,-1.58069 -14.90027,-2.3711 -23.43945,-2.3711 z m 0,35.58789 c 3.6059,0 7.21094,0.44424 9.28125,1.33008 7.35475,3.14687 11.84375,11.1519 11.84375,21.12305 0,10.03559 -4.64379,18.01241 -12.58398,21.61914 -2.22275,1.00966 -6.06602,1.83594 -8.54102,1.83594 -8.41366,0 -16.21446,-5.46811 -19.71484,-13.82227 -1.89991,-4.53437 -1.79124,-14.98664 0.20507,-19.76562 2.03671,-4.87567 6.07206,-9.21265 10.22657,-10.99024 2.07031,-0.88584 5.6773,-1.33008 9.2832,-1.33008 z m 46.22852,21.18946 c 0.49403,0.004 0.99544,0.0322 1.50585,0.084 5.7836,0.5873 9.07846,3.0055 11.47266,8.41797 3.45079,7.8011 0.429,18.32931 -6.2539,21.78516 -10.61657,5.49006 -22.12612,-3.96893 -20.5918,-16.92383 0.97493,-8.23181 6.45661,-13.42916 13.86719,-13.36328 z m -93,0.041 c 4.61448,0.0325 9.28257,2.06648 11.96875,5.73633 4.88158,6.6692 2.48753,19.76876 -4.37891,23.95508 -6.48603,3.95441 -14.79828,2.03506 -18.72852,-4.32422 -4.65674,-7.53475 -3.00542,-19.03438 3.33008,-23.18555 2.2903,-1.50066 5.0399,-2.20116 7.8086,-2.18164 z m 47.46093,38.76172 c 5.50741,0.006 10.90083,0.31329 14.09961,0.91992 16.05176,3.04415 26.83126,15.00266 27.97852,31.03711 0.57618,8.05285 -1.33901,12.95793 -6.24219,15.98828 v 0.002 c -3.1011,1.91652 -4.90491,2.01316 -36.64453,1.99804 -31.77146,-0.0161 -33.53357,-0.11416 -36.53516,-2.03711 -4.81131,-3.08228 -6.68426,-7.97104 -6.11328,-15.95117 1.16887,-16.33655 12.28694,-28.38226 28.67188,-31.0664 3.65713,-0.59987 9.27775,-0.8965 14.78515,-0.89063 z m -50.20312,3.85547 c 2.00109,0.0256 3.4533,0.50433 3.84961,1.53711 0.30236,0.78792 -1.00005,4.50044 -2.89258,8.25 -3.56118,7.05558 -6.15663,19.34031 -5.0332,23.81641 0.3233,1.28878 0.31577,3.05318 -0.0176,3.92187 -0.46296,1.20643 -2.085,1.58008 -6.86524,1.58008 -7.02572,0 -10.35953,-1.84256 -13.16797,-7.27344 -3.43961,-6.65151 1.06182,-20.89575 8.36329,-26.46484 4.304,-3.28283 11.36127,-5.4234 15.76367,-5.36719 z m 99.8164,0.16406 c 2.4197,-10e-4 5.39104,0.45426 7.94922,1.36719 8.80337,3.14158 15.41552,11.95332 16.44336,21.91211 0.62291,6.03538 -0.99987,10.18345 -5.31054,13.57422 -2.0499,1.61246 -4.07995,2.08984 -8.91211,2.08984 -6.77546,0 -8.01514,-0.99037 -6.88282,-5.50195 1.12343,-4.47606 -1.47397,-16.76082 -5.03515,-23.81641 -1.89253,-3.74959 -3.19299,-7.46204 -2.89063,-8.25 0.35085,-0.91513 2.21898,-1.37366 4.63867,-1.375 z"
         transform="matrix(0.26458333,0,0,0.26458333,-28.579794,18.38978)"
         style="fill:#ffffff;stroke-width:0.999999"
         id="path80" />
    </g>
  </g>
</svg>
