<?xml version="1.0" encoding="UTF-8" standalone="no"?>
<svg
   xmlns:dc="http://purl.org/dc/elements/1.1/"
   xmlns:cc="http://creativecommons.org/ns#"
   xmlns:rdf="http://www.w3.org/1999/02/22-rdf-syntax-ns#"
   xmlns:svg="http://www.w3.org/2000/svg"
   xmlns="http://www.w3.org/2000/svg"
   xmlns:sodipodi="http://sodipodi.sourceforge.net/DTD/sodipodi-0.dtd"
   xmlns:inkscape="http://www.inkscape.org/namespaces/inkscape"
   inkscape:export-ydpi="50"
   inkscape:export-xdpi="50"
   inkscape:export-filename="/home/deepin/Downloads/medium.png"
   inkscape:version="1.0 (4035a4fb49, 2020-05-01)"
   sodipodi:docname="medium.svg"
   id="svg94"
   version="1.1"
   width="446.93799pt"
   viewBox="0 0 446.93799 446.93799"
   height="446.93799pt">
  <metadata
     id="metadata100">
    <rdf:RDF>
      <cc:Work
         rdf:about="">
        <dc:format>image/svg+xml</dc:format>
        <dc:type
           rdf:resource="http://purl.org/dc/dcmitype/StillImage" />
        <dc:title></dc:title>
      </cc:Work>
    </rdf:RDF>
  </metadata>
  <defs
     id="defs98">
    <inkscape:path-effect
       message="Use fill-rule evenodd on &lt;b&gt;fill and stroke&lt;/b&gt; dialog if no flatten result after convert clip to paths."
       hide_clip="false"
       flatten="false"
       inverse="true"
       lpeversion="1"
       is_visible="true"
       id="path-effect156"
       effect="powerclip" />
    <clipPath
       id="clipPath152"
       clipPathUnits="userSpaceOnUse">
      <path
         style="display:none;fill:#ffffff;stroke-width:11.2685"
         d="m 337.11185,141.58078 21.57916,-20.6439 v -4.51867 H 283.9358 L 230.6583,249.02595 170.04501,116.41821 H 91.661313 v 4.51867 l 25.207647,30.34608 c 2.45655,2.24244 3.74116,5.52156 3.41441,8.82323 v 119.25458 c 0.77744,4.29329 -0.61981,8.71055 -3.6398,11.83192 L 88.246961,325.6067 v 4.46232 h 80.513449 v -4.51866 l -28.39659,-34.35767 c -3.07636,-3.13264 -4.52999,-7.47102 -3.91018,-11.83192 V 176.20889 l 70.67601,153.91648 h 8.21477 l 60.77102,-153.91648 v 122.61257 c 0,3.23408 0,3.8989 -2.11851,6.01738 l -21.86083,21.15099 v 4.52994 h 106.05914 v -4.51867 l -21.07209,-20.63262 c -1.84804,-1.39731 -2.8059,-3.74116 -2.41148,-6.01738 V 147.59816 c -0.39442,-2.28751 0.55214,-4.63136 2.40018,-6.01738 z"
         id="path154" />
      <path
         d="M -5,-5 H 451.93799 V 451.93799 H -5 Z m 342.11185,146.58078 21.57916,-20.6439 v -4.51867 H 283.9358 L 230.6583,249.02595 170.04501,116.41821 H 91.661313 v 4.51867 l 25.207647,30.34608 c 2.45655,2.24244 3.74116,5.52156 3.41441,8.82323 v 119.25458 c 0.77744,4.29329 -0.61981,8.71055 -3.6398,11.83192 L 88.246961,325.6067 v 4.46232 h 80.513449 v -4.51866 l -28.39659,-34.35767 c -3.07636,-3.13264 -4.52999,-7.47102 -3.91018,-11.83192 V 176.20889 l 70.67601,153.91648 h 8.21477 l 60.77102,-153.91648 v 122.61257 c 0,3.23408 0,3.8989 -2.11851,6.01738 l -21.86083,21.15099 v 4.52994 h 106.05914 v -4.51867 l -21.07209,-20.63262 c -1.84804,-1.39731 -2.8059,-3.74116 -2.41148,-6.01738 V 147.59816 c -0.39442,-2.28751 0.55214,-4.63136 2.40018,-6.01738 z"
         class="powerclip"
         style="fill:#ffffff;stroke-width:11.2685"
         id="lpe_path-effect156" />
    </clipPath>
  </defs>
  <sodipodi:namedview
     inkscape:pagecheckerboard="true"
     inkscape:current-layer="svg94"
     inkscape:window-maximized="1"
     inkscape:window-y="0"
     inkscape:window-x="0"
     inkscape:cy="198.32095"
     inkscape:cx="124.43735"
     inkscape:zoom="0.64397225"
     showgrid="false"
     id="namedview96"
     inkscape:window-height="728"
     inkscape:window-width="1366"
     inkscape:pageshadow="2"
     inkscape:pageopacity="0"
     guidetolerance="10"
     gridtolerance="10"
     objecttolerance="10"
     borderopacity="1"
     bordercolor="#666666"
     pagecolor="#ffffff"
     inkscape:document-rotation="0" />
  <path
     d="m 446.93799,223.46899 a 223.46899,223.46899 0 0 1 -223.469,223.469 A 223.46899,223.46899 0 0 1 0,223.46899 223.46899,223.46899 0 0 1 223.46899,0 a 223.46899,223.46899 0 0 1 223.469,223.46899 z"
     sodipodi:ry="223.46899"
     sodipodi:rx="223.46899"
     sodipodi:cy="223.46899"
     sodipodi:cx="223.46899"
     sodipodi:type="arc"
     inkscape:path-effect="#path-effect156"
     clip-path="url(#clipPath152)"
     id="path150"
     style="fill:#ffffff;stroke-width:0" />
</svg>
